# xmcd
#
# Track frame offsets:
#	150
#	26684
#	51710
#	75899
#	102311
#	127852
#	155503
#	176676
#	200218
#	228500
#	260296
#
# Disc length: 3876 seconds
#
# Revision: 917517
# Processed by: cddbd v1.5.2PL0 Copyright (c) Steve Scherf et al.
# Submitted via: EZCDAudioConverter 8.0.2.1
#
DISCID=900f220b
DTITLE=Various Artist - st. Đỗ Bảo. Vol 01. Cánh Cung
DYEAR=2004
DGENRE=Contemporary Pop
TTITLE0=Hồ Quỳnh Hương - Bức thư tình thứ hai
TTITLE1=Khánh Linh - Bài hát cho em
TTITLE2=Tấn Minh - Bức thư tình đầu tiên
TTITLE3=Trần Thu Hà - Điều ngọt ngào nhất
TTITLE4=Hồ Quỳnh Hương - Ngày cuối tuần rực rỡ
TTITLE5=Hồ Quỳnh Hương - Anh đã khác xưa
TTITLE6=Khánh Linh - Điều hoang đường nhất
TTITLE7=Minh Ánh - Ngày tháng chờ mong
TTITLE8=Tấn Minh - Cỏ mềm
TTITLE9=Lê Hiếu - Cánh Cung
TTITLE10=Trần Thu Hà - Cầu võng đêm mưa
EXTD=
EXTT0=
EXTT1=
EXTT2=
EXTT3=
EXTT4=
EXTT5=
EXTT6=
EXTT7=
EXTT8=
EXTT9=
EXTT10=
PLAYORDER=
